# xmcd
#
# Track frame offsets:
#	150
#	15151
#	33352
#	49494
#	65214
#	78566
#	84431
#	102207
#	118121
#	133816
#	149641
#	168879
#	185187
#	201943
#
# Disc length: 2948 seconds
#
# Revision: 7
# Processed by: cddbd v1.5.2PL0 Copyright (c) Steve Scherf et al.
# Submitted via: EasyCDDAExtractor 15.3.0.1
#
DISCID=cd0b820e
DTITLE=Rihanna - Talk That Talk (Deluxe Edition)
DYEAR=2011
DGENRE=Pop
TTITLE0=You Da One
TTITLE1=Where Have You Been
TTITLE2=We Found Love (Feat. Calvin Harris)
TTITLE3=Talk That Talk (Feat. Jay-Z)
TTITLE4=Cockiness (Love It)
TTITLE5=Birthday Cake
TTITLE6=We All Want Love
TTITLE7=Drunk On Love
TTITLE8=Roc Me Out
TTITLE9=Watch N' Learn
TTITLE10=Farewell
TTITLE11=Red Lipstick
TTITLE12=Do Ya Thang
TTITLE13=Fool In Love
EXTD=YEAR: 2011
EXTT0=
EXTT1=
EXTT2=
EXTT3=
EXTT4=
EXTT5=
EXTT6=
EXTT7=
EXTT8=
EXTT9=
EXTT10=
EXTT11=
EXTT12=
EXTT13=
PLAYORDER=
